<mxfile host="app.diagrams.net" modified="2024-03-04T07:35:48.532Z" agent="Mozilla/5.0 (Windows NT 10.0; Win64; x64) AppleWebKit/537.36 (KHTML, like Gecko) Chrome/121.0.0.0 Safari/537.36" version="24.0.1" etag="YvC1BwnsRYLASfc1pepi" type="github">
  <diagram name="第 1 页" id="xLOp-ihmfFmxPzWH3ALX">
    <mxGraphModel>
      <root>
        <mxCell id="0" />
        <mxCell id="1" parent="0" />
      </root>
    </mxGraphModel>
  </diagram>
</mxfile>
